<?xml version="1.0" encoding="UTF-8" standalone="no"?>
<!-- Created with Inkscape (http://www.inkscape.org/) -->

<svg
   width="100"
   height="100"
   viewBox="0 0 26.458333 26.458333"
   version="1.1"
   id="svg1"
   xml:space="preserve"
   xmlns="http://www.w3.org/2000/svg"
   xmlns:svg="http://www.w3.org/2000/svg"><defs
     id="defs1" /><g
     id="layer1"><path
       style="fill:#ed1a3b;fill-opacity:1;stroke-width:2.08024"
       d="M 5.1765243,26.007068 C 5.0976664,25.828143 5.0556227,23.184498 5.0556227,18.403164 v -7.329631 l -0.3211729,0.07663 C 3.8156691,11.369337 1.6570574,11.576938 1.5572776,11.455729 1.4270874,11.297569 0.03366565,4.4201107 0.03366565,3.9356641 c 0,-0.1825847 0.09211056,-0.3918212 0.20468509,-0.4649717 C 0.35092699,3.3975422 2.5639424,2.5940455 5.1561595,1.6851447 9.6410027,0.11263872 9.8799818,0.04435605 10.090219,0.27535881 c 0.121525,0.13351883 0.220939,0.31709883 0.220939,0.40795682 0,0.32698457 0.804753,1.29725807 1.417966,1.70961397 0.540061,0.3631639 0.745926,0.420368 1.501777,0.4173039 0.71995,-0.0029 0.982769,-0.071342 1.47597,-0.3842522 0.582954,-0.3698563 1.443771,-1.4088829 1.443771,-1.74266567 0,-0.0908574 0.09928,-0.27428381 0.220626,-0.40761284 0.209821,-0.2305458 0.453687,-0.16076544 4.980148,1.42502731 2.617735,0.9170938 4.853077,1.7660472 4.967424,1.8865629 0.197845,0.2085204 0.171441,0.4007578 -0.546093,3.974466 -0.414696,2.0654416 -0.804521,3.816696 -0.866278,3.891678 -0.101834,0.123639 -2.247604,-0.08107 -3.179121,-0.303277 l -0.32117,-0.07663 v 7.433746 c 0,5.59274 -0.03471,7.475888 -0.140139,7.603905 -0.106251,0.129002 -2.054587,0.170148 -8.05438,0.170148 -7.7050395,0 -7.9174273,-0.0074 -8.0351309,-0.274273 z"
       id="path3" /><path
       style="fill:#ffffff;stroke-width:0.0763126"
       d="M 12.637755,20.944712 C 9.2562397,20.685585 6.4042549,18.221231 5.6719948,14.925709 5.4319821,13.845541 5.4254654,12.611431 5.6542561,11.569586 5.9718477,10.123479 6.6912131,8.8119896 7.749092,7.7504645 c 1.2288009,-1.2330414 2.749677,-1.9811898 4.525032,-2.225958 0.385464,-0.053143 1.537367,-0.053918 1.907765,-0.00128 1.217771,0.1730551 2.308689,0.5736703 3.277954,1.2037517 0.913969,0.5941372 1.774105,1.4744515 2.357064,2.4123655 0.53272,0.8570836 0.929141,1.9378283 1.081464,2.9483623 0.107723,0.714635 0.09478,1.707977 -0.03189,2.445748 -0.273918,1.595663 -1.09039,3.134742 -2.254576,4.249955 -0.41252,0.395162 -0.659437,0.596633 -1.055977,0.861601 -1.146074,0.765815 -2.408958,1.198896 -3.799764,1.303059 -0.47397,0.03551 -0.617001,0.03506 -1.118451,-0.0033 z m -1.051019,-2.806426 c 0.228686,-0.04838 0.539839,-0.193159 0.740126,-0.344373 0.720347,-0.54387 0.781365,-1.625202 0.125802,-2.229477 -0.267233,-0.246328 -0.60968,-0.398248 -1.012972,-0.449378 -0.423829,-0.05374 -0.827847,0.05685 -1.172345,0.320895 l -0.205203,0.157281 0.02223,-0.152447 c 0.06082,-0.41704 0.22249,-0.759636 0.47611,-1.008913 0.208463,-0.204894 0.431593,-0.294501 0.733337,-0.294501 0.257671,0 0.42998,0.05578 0.641291,0.207592 0.107522,0.07724 0.178212,0.10724 0.224356,0.09519 0.0793,-0.02071 0.524602,-0.50543 0.524602,-0.57105 0,-0.11893 -0.574912,-0.445749 -0.908136,-0.516246 -0.236391,-0.05002 -0.748574,-0.0439 -0.961132,0.01147 -0.527378,0.137364 -0.9920628,0.521855 -1.2597119,1.042307 -0.5656469,1.099931 -0.3916966,2.548112 0.3942755,3.282485 0.2213404,0.206812 0.4969284,0.366185 0.7516464,0.434689 0.206007,0.0554 0.657428,0.06279 0.885722,0.01448 z M 10.992111,17.384 c -0.412382,-0.08158 -0.705514,-0.392786 -0.703881,-0.747266 0.0029,-0.644708 0.899784,-0.993503 1.477827,-0.574772 0.238243,0.172581 0.34887,0.535484 0.250572,0.821991 -0.08633,0.251632 -0.311107,0.43226 -0.619092,0.497493 -0.186213,0.03943 -0.217966,0.03964 -0.405426,0.0025 z m 4.559756,0.709272 c 0.39873,-0.09398 0.828508,-0.379637 1.115155,-0.741202 0.159245,-0.20086 0.357454,-0.609733 0.437342,-0.902151 0.09949,-0.364194 0.09933,-1.060287 -3.38e-4,-1.413843 -0.163993,-0.58175 -0.491522,-1.061929 -0.927556,-1.359858 -0.91731,-0.626772 -2.107449,-0.325548 -2.717946,0.687911 -0.270177,0.4485 -0.38087,0.917747 -0.355086,1.505264 0.02042,0.465003 0.07099,0.672455 0.258145,1.058682 0.220256,0.454523 0.577305,0.829799 0.988207,1.038653 0.314532,0.159872 0.830314,0.214171 1.202077,0.126544 z m -0.811806,-0.867449 c -0.469326,-0.234527 -0.763121,-0.804411 -0.763121,-1.480247 0,-0.658411 0.277911,-1.217046 0.730044,-1.467486 0.150051,-0.08311 0.198213,-0.09337 0.436687,-0.09304 0.316803,4.12e-4 0.45839,0.06069 0.691457,0.29418 0.50906,0.509979 0.629355,1.47227 0.272165,2.177145 -0.290112,0.572511 -0.874239,0.815799 -1.367232,0.569448 z M 11.528119,12.7667 c 0.28567,-0.05092 0.641585,-0.211494 0.827064,-0.373144 0.481819,-0.419911 0.497935,-1.321059 0.0313,-1.751171 -0.20511,-0.18906 -0.443093,-0.294745 -1.071825,-0.475975 -0.310909,-0.08962 -0.632065,-0.1916657 -0.713674,-0.2267757 -0.3578,-0.153921 -0.457998,-0.456783 -0.229894,-0.6948729 0.133775,-0.1396324 0.332264,-0.2000187 0.657457,-0.2000187 0.247556,0 0.306953,0.011385 0.46511,0.089031 0.09972,0.048968 0.257799,0.1589398 0.351287,0.2443808 0.09349,0.085448 0.196034,0.1553508 0.227882,0.1553508 0.09041,0 0.51662,-0.4398788 0.51662,-0.5331892 0,-0.1039572 -0.248077,-0.340579 -0.511543,-0.4879167 -0.29785,-0.1665667 -0.628901,-0.2431056 -1.049356,-0.2426106 -0.583958,8.25e-4 -0.985422,0.1487725 -1.2873114,0.4748524 -0.2418021,0.261177 -0.3137841,0.4618893 -0.2998712,0.8361671 0.012908,0.347497 0.088575,0.5224157 0.3312156,0.7657817 0.2149963,0.215635 0.487133,0.342394 1.129835,0.526256 0.79214,0.226615 0.977375,0.347339 0.977482,0.637064 6.6e-5,0.170824 -0.08581,0.287761 -0.285389,0.388596 -0.137962,0.0697 -0.194368,0.07861 -0.487128,0.07692 -0.264622,-0.0016 -0.366887,-0.01601 -0.509341,-0.07207 -0.201901,-0.07946 -0.423513,-0.23878 -0.590908,-0.424816 -0.173901,-0.193262 -0.1937991,-0.210702 -0.2404293,-0.210702 -0.023801,0 -0.1502665,0.109971 -0.2809885,0.244385 -0.3136283,0.322475 -0.3132199,0.341248 0.014029,0.649079 0.139038,0.130802 0.3341526,0.287118 0.4335849,0.347373 0.4376379,0.265202 1.0230759,0.359924 1.5947919,0.258021 z m 3.865901,-0.03308 c 0.597371,-0.06621 1.211402,-0.492255 1.505689,-1.044741 0.194021,-0.364246 0.27278,-0.678353 0.275564,-1.09901 l 0.0025,-0.346869 -1.099939,-0.0083 c -0.785536,-0.0059 -1.112268,0.0021 -1.143085,0.02751 -0.05684,0.04717 -0.06138,0.659432 -0.0053,0.715509 0.02705,0.02705 0.229613,0.03782 0.711628,0.03782 h 0.673782 l -0.02199,0.07095 c -0.09995,0.322701 -0.352375,0.608867 -0.669674,0.759186 -0.199252,0.09439 -0.231974,0.100096 -0.573931,0.100096 -0.327433,0 -0.380135,-0.0082 -0.542944,-0.08451 C 13.777586,11.5197 13.501676,10.50196 13.930117,9.7358323 14.296273,9.081085 15.152693,8.8941452 15.803625,9.3268842 c 0.1153,0.076652 0.236168,0.1686791 0.268593,0.2045111 0.102323,0.113069 0.180691,0.08148 0.422349,-0.1702005 0.12428,-0.1294404 0.225964,-0.2593621 0.225964,-0.2887185 0,-0.07183 -0.287374,-0.3333686 -0.518452,-0.4718379 C 15.877751,8.4062951 15.592618,8.3283415 15.142695,8.311013 14.810316,8.298224 14.705513,8.306363 14.484561,8.362242 13.70372,8.5596992 13.157719,9.1169034 12.950642,9.9276373 c -0.08054,0.3153267 -0.07469,0.9255007 0.01196,1.2504267 0.233846,0.876631 0.906713,1.46605 1.792707,1.570374 0.211643,0.02491 0.298177,0.02289 0.638883,-0.01485 z"
       id="path4" /></g></svg>
